<mxfile host="app.diagrams.net" agent="Mozilla/5.0 (X11; Ubuntu; Linux x86_64; rv:139.0) Gecko/20100101 Firefox/139.0" version="27.1.4">
  <diagram name="Page-1" id="p-S3AQ8SFrHaynIKOJ-j">
    <mxGraphModel dx="951" dy="530" grid="1" gridSize="10" guides="1" tooltips="1" connect="1" arrows="1" fold="1" page="1" pageScale="1" pageWidth="850" pageHeight="1100" math="0" shadow="0">
      <root>
        <mxCell id="0" />
        <mxCell id="1" parent="0" />
        <mxCell id="CQUxgP1R45kaNKD8kT8w-5" style="edgeStyle=orthogonalEdgeStyle;rounded=0;orthogonalLoop=1;jettySize=auto;html=1;flowAnimation=1;" edge="1" parent="1" source="CQUxgP1R45kaNKD8kT8w-1" target="CQUxgP1R45kaNKD8kT8w-4">
          <mxGeometry relative="1" as="geometry" />
        </mxCell>
        <mxCell id="CQUxgP1R45kaNKD8kT8w-6" value="&lt;div&gt;Read&lt;/div&gt;" style="edgeLabel;html=1;align=center;verticalAlign=middle;resizable=0;points=[];" vertex="1" connectable="0" parent="CQUxgP1R45kaNKD8kT8w-5">
          <mxGeometry x="0.0069" relative="1" as="geometry">
            <mxPoint y="-10" as="offset" />
          </mxGeometry>
        </mxCell>
        <mxCell id="CQUxgP1R45kaNKD8kT8w-1" value="Topic 1" style="rounded=1;whiteSpace=wrap;html=1;" vertex="1" parent="1">
          <mxGeometry x="130" y="330" width="120" height="60" as="geometry" />
        </mxCell>
        <mxCell id="CQUxgP1R45kaNKD8kT8w-2" value="Topic 2" style="rounded=1;whiteSpace=wrap;html=1;" vertex="1" parent="1">
          <mxGeometry x="600" y="220" width="120" height="60" as="geometry" />
        </mxCell>
        <mxCell id="CQUxgP1R45kaNKD8kT8w-3" value="Topic 3" style="rounded=1;whiteSpace=wrap;html=1;" vertex="1" parent="1">
          <mxGeometry x="600" y="440" width="120" height="60" as="geometry" />
        </mxCell>
        <mxCell id="CQUxgP1R45kaNKD8kT8w-7" style="edgeStyle=orthogonalEdgeStyle;rounded=0;orthogonalLoop=1;jettySize=auto;html=1;entryX=0;entryY=0.5;entryDx=0;entryDy=0;flowAnimation=1;" edge="1" parent="1" source="CQUxgP1R45kaNKD8kT8w-4" target="CQUxgP1R45kaNKD8kT8w-2">
          <mxGeometry relative="1" as="geometry" />
        </mxCell>
        <mxCell id="CQUxgP1R45kaNKD8kT8w-8" style="edgeStyle=orthogonalEdgeStyle;rounded=0;orthogonalLoop=1;jettySize=auto;html=1;entryX=0;entryY=0.5;entryDx=0;entryDy=0;flowAnimation=1;" edge="1" parent="1" source="CQUxgP1R45kaNKD8kT8w-4" target="CQUxgP1R45kaNKD8kT8w-3">
          <mxGeometry relative="1" as="geometry" />
        </mxCell>
        <mxCell id="CQUxgP1R45kaNKD8kT8w-4" value="&lt;div&gt;Application&lt;/div&gt;" style="rounded=1;whiteSpace=wrap;html=1;" vertex="1" parent="1">
          <mxGeometry x="365" y="330" width="120" height="60" as="geometry" />
        </mxCell>
      </root>
    </mxGraphModel>
  </diagram>
</mxfile>
